<?xml version="1.0" standalone="no"?>
<!DOCTYPE svg PUBLIC "-//W3C//DTD SVG 20010904//EN"
 "http://www.w3.org/TR/2001/REC-SVG-20010904/DTD/svg10.dtd">
<svg version="1.0" xmlns="http://www.w3.org/2000/svg"
 width="500.000000pt" height="500.000000pt" viewBox="0 0 500.000000 500.000000"
 preserveAspectRatio="xMidYMid meet">

<g transform="translate(0.000000,500.000000) scale(0.100000,-0.100000)"
fill="#000000" stroke="none">
<path d="M2295 4994 c-527 -54 -963 -231 -1362 -553 -279 -224 -508 -511 -668
-836 -116 -236 -177 -423 -226 -694 -27 -146 -37 -505 -20 -673 50 -474 243
-940 544 -1313 86 -107 260 -280 373 -370 280 -226 651 -408 995 -489 206 -49
317 -61 574 -61 270 0 388 14 610 70 850 217 1507 836 1774 1670 90 279 115
471 108 817 -5 311 -27 443 -114 713 -289 896 -1070 1555 -2013 1701 -101 15
-484 27 -575 18z m1005 -1210 c181 -37 351 -157 421 -300 32 -65 34 -74 34
-174 0 -98 -2 -110 -33 -174 -23 -49 -52 -88 -100 -135 -74 -73 -145 -115
-267 -158 l-80 -28 -695 -3 -695 -3 303 176 c296 173 302 177 295 203 -5 15
-8 72 -8 127 0 92 3 106 32 167 115 244 449 371 793 302z m-1827 -687 c104
-38 172 -84 261 -178 60 -64 96 -114 140 -195 33 -60 178 -316 323 -568 145
-253 262 -460 261 -461 -2 -1 -137 76 -301 172 l-298 174 -46 -41 c-77 -68
-143 -94 -248 -98 -165 -7 -296 49 -436 188 -234 231 -313 577 -187 823 44 88
151 174 250 202 74 21 195 13 281 -18z m1602 -335 c-9 -8 -505 -296 -552 -321
-20 -10 -53 6 -305 150 -156 89 -287 166 -292 171 -6 4 253 8 574 8 321 0 580
-4 575 -8z m-866 -187 l280 -160 0 -345 c0 -261 -2 -340 -11 -325 -6 11 -131
229 -278 485 -309 537 -295 513 -281 509 6 -2 136 -76 290 -164z m878 158
c-34 -60 -571 -979 -574 -982 -2 -3 -2 145 -1 328 l3 333 280 163 c266 156
302 175 292 158z m91 -678 c56 -10 156 -70 199 -119 149 -169 161 -449 30
-700 -110 -212 -282 -352 -484 -393 -188 -38 -370 53 -453 229 -42 88 -53 156
-47 278 6 129 36 230 104 347 26 45 174 297 328 560 l280 477 3 -336 2 -336
38 -7z"/>
</g>
</svg>
