<?xml version="1.0" standalone="no"?>
<!DOCTYPE svg PUBLIC "-//W3C//DTD SVG 20010904//EN"
 "http://www.w3.org/TR/2001/REC-SVG-20010904/DTD/svg10.dtd">
<svg version="1.0" xmlns="http://www.w3.org/2000/svg"
 width="500.000000pt" height="500.000000pt" viewBox="0 0 500.000000 500.000000"
 preserveAspectRatio="xMidYMid meet">

<g transform="translate(0.000000,500.000000) scale(0.100000,-0.100000)"
fill="#000000" stroke="none">
<path d="M2200 4899 c-424 -56 -817 -217 -1165 -478 -195 -147 -440 -416 -579
-634 -160 -254 -280 -570 -337 -894 -31 -173 -34 -574 -6 -753 109 -684 489
-1280 1057 -1654 149 -99 207 -130 365 -200 204 -90 400 -147 635 -183 137
-21 470 -23 624 -5 440 54 861 229 1211 502 120 94 326 302 412 415 304 402
468 837 502 1330 37 527 -105 1053 -405 1502 -268 401 -659 719 -1099 896
-383 154 -814 209 -1215 156z m136 -839 c243 -119 317 -447 171 -755 -28 -58
-639 -1109 -655 -1125 -2 -3 -3 152 -1 344 l4 349 -47 12 c-25 6 -72 27 -103
46 -285 171 -272 648 24 963 93 98 230 176 351 200 14 2 62 3 108 1 69 -2 94
-8 148 -35z m517 -1009 l298 -172 45 41 c127 117 324 132 508 39 138 -70 255
-191 331 -343 60 -119 85 -223 85 -345 0 -218 -83 -366 -248 -444 -62 -30 -74
-32 -172 -31 -119 0 -178 17 -282 80 -78 47 -184 151 -232 227 -21 32 -166
284 -323 560 -157 276 -295 517 -306 536 -11 19 -17 32 -11 29 5 -3 143 -83
307 -177z m-38 -384 c152 -268 276 -489 274 -491 -2 -2 -132 72 -289 163
l-285 166 -3 345 c-2 293 0 342 11 325 8 -11 139 -240 292 -508z m-332 -158
c-16 -14 -574 -331 -577 -328 -2 2 127 227 288 499 l291 496 3 -330 c1 -181
-1 -333 -5 -337z m307 -186 c191 -112 281 -169 267 -170 -12 -2 -271 0 -576 5
l-555 7 280 162 c153 89 283 162 287 162 4 1 138 -74 297 -166z m-72 -209
l383 -6 -301 -172 -301 -171 8 -40 c5 -22 7 -75 7 -117 -2 -67 -7 -88 -38
-154 -62 -131 -192 -235 -361 -291 -117 -38 -316 -44 -435 -14 -197 50 -350
161 -421 306 -32 65 -34 76 -34 170 0 92 3 105 32 168 62 131 198 242 360 294
127 41 180 42 1101 27z"/>
</g>
</svg>
