<?xml version="1.0" standalone="no"?>
<!DOCTYPE svg PUBLIC "-//W3C//DTD SVG 20010904//EN"
 "http://www.w3.org/TR/2001/REC-SVG-20010904/DTD/svg10.dtd">
<svg version="1.0" xmlns="http://www.w3.org/2000/svg"
 width="500.000000pt" height="500.000000pt" viewBox="0 0 500.000000 500.000000"
 preserveAspectRatio="xMidYMid meet">

<g transform="translate(0.000000,500.000000) scale(0.100000,-0.100000)"
fill="#000000" stroke="none">
<path d="M2315 4993 c-397 -36 -800 -166 -1113 -361 -334 -208 -642 -519 -842
-852 -309 -512 -420 -1142 -309 -1741 93 -505 337 -961 705 -1319 207 -202
394 -334 649 -460 243 -120 495 -199 760 -237 170 -24 506 -24 680 0 808 115
1518 617 1883 1333 114 225 187 439 239 703 26 129 27 151 27 441 0 290 -1
312 -27 441 -103 524 -331 961 -688 1318 -426 426 -947 670 -1558 731 -97 9
-316 11 -406 3z m535 -98 c555 -86 1022 -327 1402 -724 359 -374 580 -833 654
-1356 22 -162 22 -468 0 -630 -49 -347 -164 -668 -343 -957 -188 -305 -478
-594 -786 -786 -268 -168 -598 -287 -937 -339 -160 -24 -510 -24 -670 0 -268
42 -479 108 -725 227 -706 343 -1186 987 -1326 1777 -27 151 -37 472 -20 634
88 842 598 1570 1353 1934 283 136 530 204 863 239 86 9 434 -3 535 -19z"/>
<path d="M3035 3800 c-238 -26 -438 -149 -518 -318 -29 -61 -32 -75 -32 -167
0 -55 3 -111 7 -125 6 -24 -7 -33 -300 -203 l-307 -177 700 2 700 3 80 28
c122 43 193 85 267 158 48 47 77 86 100 135 31 64 33 76 33 174 0 100 -2 109
-34 174 -106 215 -399 348 -696 316z"/>
<path d="M1207 3110 c-224 -57 -356 -291 -318 -564 25 -177 101 -326 236 -462
143 -143 272 -200 439 -192 109 5 180 33 253 101 l48 45 295 -173 c162 -94
296 -171 298 -170 3 2 -576 1013 -625 1090 -86 135 -236 260 -364 304 -72 25
-205 35 -262 21z"/>
<path d="M1926 2762 c5 -5 136 -82 292 -171 252 -144 285 -160 305 -150 47 25
543 313 552 321 5 4 -254 8 -575 8 -321 0 -580 -4 -574 -8z"/>
<path d="M1921 2719 c6 -13 132 -233 279 -489 147 -256 272 -474 278 -485 9
-15 11 64 11 325 l0 345 -280 160 c-154 88 -284 162 -290 164 -7 2 -6 -5 2
-20z"/>
<path d="M2795 2575 l-280 -163 -3 -333 c-1 -183 -1 -331 1 -328 3 3 540 922
574 982 10 17 -26 -2 -292 -158z"/>
<path d="M2828 2209 c-169 -290 -321 -555 -338 -590 -66 -142 -89 -332 -55
-462 61 -235 264 -370 488 -324 202 41 374 181 484 393 131 251 119 531 -30
700 -43 49 -143 109 -199 119 l-38 7 -2 341 -3 341 -307 -525z"/>
</g>
</svg>
