<?xml version="1.0" standalone="no"?>
<!DOCTYPE svg PUBLIC "-//W3C//DTD SVG 20010904//EN"
 "http://www.w3.org/TR/2001/REC-SVG-20010904/DTD/svg10.dtd">
<svg version="1.0" xmlns="http://www.w3.org/2000/svg"
 width="500.000000pt" height="500.000000pt" viewBox="0 0 500.000000 500.000000"
 preserveAspectRatio="xMidYMid meet">

<g transform="translate(0.000000,500.000000) scale(0.100000,-0.100000)"
fill="#000000" stroke="none">
<path d="M2325 4994 c-16 -2 -73 -9 -125 -15 -336 -38 -701 -167 -1018 -359
-211 -128 -481 -372 -640 -576 -262 -339 -423 -700 -499 -1124 -24 -132 -27
-170 -27 -410 -1 -296 10 -393 69 -625 154 -604 534 -1136 1055 -1478 123 -80
362 -200 504 -252 139 -51 377 -110 531 -131 180 -25 494 -26 670 -1 432 62
863 244 1199 506 120 95 328 302 422 421 281 355 459 780 519 1233 23 176 20
495 -5 671 -105 710 -496 1331 -1084 1721 -417 276 -848 410 -1351 420 -104 2
-203 2 -220 -1z m472 -94 c242 -31 413 -75 618 -157 286 -115 540 -281 768
-503 143 -138 229 -240 331 -393 300 -449 442 -975 405 -1502 -41 -593 -274
-1115 -688 -1537 -340 -348 -761 -578 -1237 -677 -164 -34 -287 -45 -504 -45
-350 -1 -637 59 -955 200 -158 70 -216 101 -365 200 -497 328 -857 832 -1005
1409 -59 228 -70 329 -70 615 1 221 4 272 24 383 92 522 316 953 680 1317 255
254 546 440 886 565 341 126 748 172 1112 125z"/>
<path d="M2080 4094 c-69 -14 -157 -50 -222 -93 -300 -197 -442 -611 -308
-896 16 -33 44 -78 63 -100 42 -49 133 -104 195 -120 l47 -12 -4 -349 c-2
-192 -1 -347 1 -344 16 16 627 1067 655 1125 116 246 93 524 -57 674 -27 27
-79 64 -114 81 -54 27 -79 33 -148 35 -46 2 -94 1 -108 -1z"/>
<path d="M2557 3199 c11 -19 149 -260 306 -536 157 -276 302 -528 323 -560 48
-76 154 -180 232 -227 104 -63 163 -80 282 -80 98 -1 110 1 172 31 165 78 248
226 248 444 0 281 -171 563 -416 688 -184 93 -381 78 -508 -39 l-45 -41 -298
172 c-164 94 -302 174 -307 177 -6 3 0 -10 11 -29z"/>
<path d="M2512 2850 l3 -345 285 -166 c157 -91 287 -165 289 -163 3 3 -536
955 -566 999 -11 17 -13 -32 -11 -325z"/>
<path d="M2194 2680 c-161 -272 -290 -497 -288 -499 3 -3 561 314 577 328 4 4
6 156 5 337 l-3 330 -291 -496z"/>
<path d="M2206 2327 l-280 -162 555 -7 c305 -5 564 -7 576 -5 14 1 -76 58
-267 170 -159 92 -293 167 -297 166 -4 0 -134 -73 -287 -162z"/>
<path d="M1785 2118 c-234 -17 -443 -146 -528 -325 -29 -63 -32 -76 -32 -168
0 -94 2 -105 34 -170 71 -145 224 -256 421 -306 119 -30 318 -24 435 14 169
56 299 160 361 291 31 66 36 87 38 154 0 42 -2 95 -7 117 l-8 40 301 171 301
172 -383 6 c-644 10 -839 11 -933 4z"/>
</g>
</svg>
